<?xml version="1.0" encoding="UTF-8"?>
<svg width="1200pt" height="1200pt" version="1.1" viewBox="0 0 1200 1200" xmlns="http://www.w3.org/2000/svg">
 <path d="m768 945.72c-62.293-1.0781-123.35-17.57-177.72-48-54.363 30.449-115.42 46.941-177.72 48-88.801 0-183.12-19.441-183.12-55.441 0.003906-35.996 94.562-55.438 182.88-55.438 62.289 1.1211 123.34 17.609 177.72 48 54.395-30.367 115.43-46.855 177.72-48 88.801 0 183.12 19.441 183.12 55.441-0.003906 36-94.324 55.438-182.88 55.438zm-162.36-55.438c50.188 26.215 105.75 40.504 162.36 41.758 105 0 169.44-24 169.44-41.762 0-17.758-64.68-41.758-169.44-41.758-56.613 1.2383-112.18 15.527-162.36 41.762zm-193.32-41.762c-105 0-169.44 24-169.44 41.762s64.441 41.762 169.44 41.762v-0.003907c56.527-1.2891 112-15.578 162.12-41.758-50.117-26.184-105.59-40.473-162.12-41.762zm176.28-19.68-3.7188-2.3984c-3.4805-2.2812-86.52-56.281-86.52-125.04 0-68.762 40.441-126.12 90.238-126.12 49.801 0 90.238 56.52 90.238 126.12 0 69.602-83.039 122.76-86.641 125.04zm0-240c-42.238 0-76.559 50.398-76.559 112.44 0 53.641 60.719 99.961 76.559 111 15.719-11.039 76.559-57.359 76.559-111 0-61.922-34.32-112.32-76.559-112.32zm109.56-6v-13.441c91.32 0 165.84-125.4 165.84-279.36h13.68c-0.12109 161.52-80.641 292.92-179.52 292.92zm-210 0c-99 0-180-131.4-180-292.92h13.68c0 153.96 74.398 279.36 165.84 279.36zm100.44-15.121c-49.801 0-90.238-56.52-90.238-126.12-0.003906-69.598 40.438-126 90.238-126 49.797 0 90.238 56.398 90.238 126.12 0 69.723-40.559 126.12-90.238 126.12zm0-238.56c-42.238 0-76.559 50.52-76.559 112.44 0 61.922 34.32 112.56 76.559 112.56 42.238 0 76.559-50.52 76.559-112.56 0-62.043-34.32-112.32-76.559-112.32z"/>
</svg>
