<?xml version="1.0" encoding="UTF-8"?>
<svg width="1200pt" height="1200pt" version="1.1" viewBox="0 0 1200 1200" xmlns="http://www.w3.org/2000/svg">
 <path d="m600 60c-182.53 0-331.03 148.5-331.03 331.03v748.97h662.02v-748.97c0-182.53-148.5-331.03-331.03-331.03zm319.18 909.71c-2.3438-0.70312-4.6406-1.4062-6.9844-2.1094-9.0469-2.8125-18.469-5.7188-28.266-7.0781-27.141-3.75-53.391 4.8281-78.75 13.078-8.5312 2.7656-17.016 5.5781-25.547 7.875-54.141 14.625-112.03 9.9375-168.1 5.3906-0.79688-0.046875-1.5938-0.14062-2.3906-0.1875-2.9062-0.23438-5.8594-0.46875-8.7656-0.70312-3.0938-0.23438-6.1406-0.51562-9.1875-0.75-47.719-3.6562-96.516-5.7656-143.48 5.1562-5.3906 1.2656-10.734 2.6719-16.078 4.0781-12.75 3.375-24.844 6.6094-37.359 7.5938-1.1719 0.09375-2.3438-0.046875-3.5156 0 0.09375-0.46875 0.046875-0.98438 0.14062-1.4531l0.60938-2.4844c0.84375-3.3281 1.7812-7.125 0.98438-11.344-1.0312-5.4844-4.5938-9.4219-7.8281-12.188 13.453-2.0625 27.234-5.0156 40.781-12.984 18.188-10.734 35.156-30.281 51.516-51.844 1.2188-1.6406 2.4844-3.2344 3.7031-4.875s2.4375-3.3281 3.6562-4.9688c3.9844-5.4375 7.9688-10.922 11.906-16.406 28.828-40.172 58.641-81.234 89.812-79.312 11.672 0.9375 23.484 7.9688 35.953 15.469 4.5 2.6719 8.9531 5.3906 13.453 7.7812 14.766 7.9219 30.047 7.8281 45.422 2.5312 40.547-14.016 82.266-65.672 120.32-112.92 9.2344-11.438 18.094-22.5 26.531-32.391 5.7188-6.75 11.859-10.219 18.75-10.688 11.062-0.70312 24.094 6.4219 38.203 17.062 10.969 8.25 22.594 18.609 34.5 29.344v249.37zm-210.19-663.79h26.625l8.25-25.312 8.25 25.312h26.625l-21.562 15.656 8.25 25.312-21.562-15.656-21.562 15.656 8.25-25.312zm72.047 127.55c12.844 0 23.25 10.406 23.25 23.25s-10.406 23.25-23.25 23.25-23.25-10.406-23.25-23.25 10.406-23.25 23.25-23.25zm-155.68-221.95c7.0781 0 12.797 5.7188 12.797 12.797 0 7.0781-5.7188 12.797-12.797 12.797s-12.797-5.7188-12.797-12.797c0-7.0781 5.7188-12.797 12.797-12.797zm3.7969 198.47c-23.625 28.266-61.172 43.594-100.12 37.078-58.453-9.7969-97.875-65.109-88.125-123.52 5.5781-33.281 25.875-60.375 53.109-75.75-7.5469 12.047-12.891 25.734-15.422 40.641-10.125 60.469 30.703 117.7 91.172 127.82 20.766 3.4688 41.109 0.9375 59.297-6.2812zm-85.125 155.9c0-9 7.2656-16.266 16.266-16.266s16.266 7.2656 16.266 16.266-7.2656 16.266-16.266 16.266-16.266-7.2656-16.266-16.266zm-14.578 147.24-16.078-11.672-16.078 11.672 6.1406-18.891-16.078-11.672h19.828l6.1406-18.891 6.1406 18.891h19.828l-16.078 11.672 6.1406 18.891zm-136.5-211.5 8.5781 26.344h27.703l-22.406 16.266 8.5781 26.344-22.406-16.266-22.406 16.266 8.5781-26.344-22.406-16.266h27.703l8.5781-26.344zm452.68 160.5c-10.125 0.65625-19.219 5.6719-27 14.812-8.4844 9.9844-17.438 21.094-26.719 32.625-39.094 48.562-86.109 106.83-126.74 111.66-39.234-25.453-65.25-69.656-65.156-119.91 0.1875-78.75 64.125-142.45 142.87-142.26 69.516 0.14062 127.22 50.016 139.69 115.88-12.844-8.4844-25.078-13.594-36.938-12.797zm-564.79 89.719c5.5781 7.4062 11.062 15.094 16.594 22.734 22.266 31.031 45.281 63.094 70.734 78.094 16.266 9.6094 32.859 11.953 48.891 14.203 4.9219 0.70312 9.8438 1.3594 14.719 2.25 12 2.2031 24.75 15.375 37.453 30.984-16.172 21.562-32.766 41.109-49.922 51.234-14.25 8.4375-28.922 10.5-44.531 12.656-1.4062 0.1875-2.8125 0.46875-4.2188 0.65625-28.219-19.125-58.406-33.375-89.719-42.422v-170.48zm0 301.08v-118.22c25.406 7.6406 50.109 18.703 73.453 33.328 2.1094 1.3125 4.1719 2.8594 6.2812 4.2656 2.3906 1.5938 4.8281 3.1875 7.1719 4.875 2.0625 1.4531 4.2188 2.7656 6.2812 4.2656 2.9531 2.1562 6.1875 4.7344 6.7031 7.5469 0.32812 1.6875-0.23438 3.9375-0.84375 6.3281-0.23438 0.98437-0.51562 1.9688-0.70312 2.9531-0.14062 0.79688-0.14062 1.5469-0.23438 2.3438-0.09375 0.5625-0.14062 1.0781-0.1875 1.6406-0.1875 1.9688-0.28125 3.9375-0.1875 5.8594 0.09375 2.0156 0.28125 4.0312 0.65625 6 2.7188 13.828 12.094 25.922 22.5 33.141 14.766 10.312 32.531 13.969 48.234 17.203l175.87 36.328 5.4844 1.125c0.1875 0.046874 0.375 0.09375 0.51562 0.09375 1.9688 0.42187 3.9844 0.84375 6 1.2656 20.391 4.2656 41.109 8.9531 60.188 17.531 5.0156 2.25 9.7031 4.7344 14.203 7.4062l-431.39-0.046874zm638.34 75.234h-135.37c-13.594-13.594-31.172-21.844-52.312-31.172-22.828-10.125-47.484-15.141-71.906-20.156-8.0625-1.6406-16.078-3.2812-24.141-4.9219-2.0156-0.42188-4.0781-0.84375-6.0938-1.2188-2.0156-0.42188-4.0781-0.84375-6.0938-1.2656-51.844-10.547-103.69-21.141-155.48-31.688-16.922-3.4688-33.141-9.1875-48.703-16.969-5.4375-2.7188-10.594-5.2969-15.609-7.8281 10.688-1.5469 21.094-4.2656 31.266-6.9375 5.25-1.3594 10.453-2.7656 15.703-3.9844 49.031-11.391 100.92-8.0156 151.45-3.9844 2.5312 0.1875 5.0625 0.42187 7.5938 0.60937 0.375 0.046876 0.79688 0.046876 1.1719 0.09375 2.0625 0.1875 4.125 0.32813 6.1875 0.46875 55.125 4.4531 111.89 8.3906 165.98-6.2344 8.7188-2.3438 17.438-5.2031 26.109-8.0156 25.172-8.25 49.031-16.031 73.453-12.656 8.8125 1.2188 17.344 3.8438 26.344 6.6562 3.4688 1.0781 6.8906 2.1562 10.406 3.1406 0.046875 0 0.09375 0 0.14062 0.046874v146.02z"/>
</svg>
